<svg width="24" height="25" viewBox="0 0 24 25" fill="none" xmlns="http://www.w3.org/2000/svg">
<path d="M3.59702 11.6152C3.59702 7.84423 3.59702 5.95823 4.72785 4.78723C5.85772 3.61523 7.67748 3.61523 11.316 3.61523H13.2458C16.8843 3.61523 18.7041 3.61523 19.8339 4.78723C20.9648 5.95823 20.9648 7.84423 20.9648 11.6152V13.6152C20.9648 17.3862 20.9648 19.2722 19.8339 20.4432C18.7041 21.6152 16.8843 21.6152 13.2458 21.6152H11.316C7.67748 21.6152 5.85772 21.6152 4.72785 20.4432C3.59702 19.2722 3.59702 17.3862 3.59702 13.6152V11.6152Z" stroke="#1D9020" stroke-width="2"/>
<path d="M16.6229 9.61523C17.4222 9.61523 18.0702 8.94366 18.0702 8.11523C18.0702 7.28681 17.4222 6.61523 16.6229 6.61523C15.8235 6.61523 15.1755 7.28681 15.1755 8.11523C15.1755 8.94366 15.8235 9.61523 16.6229 9.61523Z" fill="#1D9020"/>
<path d="M12.2809 15.6152C13.8795 15.6152 15.1755 14.2721 15.1755 12.6152C15.1755 10.9584 13.8795 9.61523 12.2809 9.61523C10.6822 9.61523 9.38626 10.9584 9.38626 12.6152C9.38626 14.2721 10.6822 15.6152 12.2809 15.6152Z" stroke="#1D9020" stroke-width="2"/>
</svg>
