<svg width="24" height="25" viewBox="0 0 24 25" fill="none" xmlns="http://www.w3.org/2000/svg">
<path d="M18.0701 3.61523C18.8378 3.61523 19.5741 3.9313 20.1169 4.49391C20.6598 5.05652 20.9648 5.81958 20.9648 6.61523V18.6152C20.9648 19.4109 20.6598 20.1739 20.1169 20.7366C19.5741 21.2992 18.8378 21.6152 18.0701 21.6152H6.49161C5.72391 21.6152 4.98765 21.2992 4.4448 20.7366C3.90195 20.1739 3.59698 19.4109 3.59698 18.6152V6.61523C3.59698 5.81958 3.90195 5.05652 4.4448 4.49391C4.98765 3.9313 5.72391 3.61523 6.49161 3.61523H18.0701ZM18.0701 5.61523H6.49161C6.23571 5.61523 5.99029 5.72059 5.80934 5.90813C5.62839 6.09566 5.52674 6.35002 5.52674 6.61523V18.6152C5.52674 18.8805 5.62839 19.1348 5.80934 19.3223C5.99029 19.5099 6.23571 19.6152 6.49161 19.6152H18.0701C18.326 19.6152 18.5714 19.5099 18.7524 19.3223C18.9333 19.1348 19.035 18.8805 19.035 18.6152V6.61523C19.035 6.35002 18.9333 6.09566 18.7524 5.90813C18.5714 5.72059 18.326 5.61523 18.0701 5.61523ZM8.42137 10.6152C8.6577 10.6153 8.8858 10.7052 9.0624 10.8679C9.23901 11.0307 9.35184 11.255 9.37949 11.4982L9.38624 11.6152V16.6152C9.38597 16.8701 9.2918 17.1153 9.12298 17.3006C8.95415 17.4859 8.72342 17.5975 8.47791 17.6124C8.23241 17.6273 7.99066 17.5446 7.80208 17.381C7.61349 17.2174 7.49229 16.9853 7.46324 16.7322L7.45649 16.6152V11.6152C7.45649 11.35 7.55815 11.0957 7.73909 10.9081C7.92004 10.7206 8.16546 10.6152 8.42137 10.6152ZM11.316 9.61523C11.542 9.6152 11.7608 9.69736 11.9343 9.8474C12.1078 9.99743 12.225 10.2058 12.2654 10.4362C12.4596 10.3195 12.6603 10.215 12.8665 10.1232C13.5101 9.83823 14.474 9.68123 15.3444 9.96423C15.8007 10.1142 16.2591 10.3942 16.5987 10.8712C16.9026 11.2962 17.0667 11.8132 17.0995 12.3942L17.1052 12.6152V16.6152C17.105 16.8701 17.0108 17.1153 16.842 17.3006C16.6732 17.4859 16.4424 17.5975 16.1969 17.6124C15.9514 17.6273 15.7097 17.5446 15.5211 17.381C15.3325 17.2174 15.2113 16.9853 15.1823 16.7322L15.1755 16.6152V12.6152C15.1755 12.2852 15.0983 12.1312 15.0481 12.0602C14.9761 11.9674 14.8769 11.9014 14.7654 11.8722C14.4296 11.7622 13.9462 11.8202 13.6249 11.9622C13.1425 12.1762 12.7006 12.5122 12.3995 12.8232L12.2809 12.9552V16.6152C12.2806 16.8701 12.1864 17.1153 12.0176 17.3006C11.8488 17.4859 11.618 17.5975 11.3725 17.6124C11.127 17.6273 10.8853 17.5446 10.6967 17.381C10.5081 17.2174 10.3869 16.9853 10.3579 16.7322L10.3511 16.6152V10.6152C10.3511 10.35 10.4528 10.0957 10.6337 9.90813C10.8147 9.72059 11.0601 9.61523 11.316 9.61523ZM8.42137 7.61523C8.67727 7.61523 8.92269 7.72059 9.10364 7.90813C9.28458 8.09566 9.38624 8.35002 9.38624 8.61523C9.38624 8.88045 9.28458 9.1348 9.10364 9.32234C8.92269 9.50988 8.67727 9.61523 8.42137 9.61523C8.16546 9.61523 7.92004 9.50988 7.73909 9.32234C7.55815 9.1348 7.45649 8.88045 7.45649 8.61523C7.45649 8.35002 7.55815 8.09566 7.73909 7.90813C7.92004 7.72059 8.16546 7.61523 8.42137 7.61523Z" fill="#1D9020"/>
</svg>
