<svg width="22" height="19" viewBox="0 0 22 19" fill="none" xmlns="http://www.w3.org/2000/svg">
<path d="M13.2809 9.61509L9.90381 11.8686V7.36157L13.2809 9.61509Z" fill="#1D9020" stroke="#1D9020" stroke-width="1.5" stroke-linecap="round" stroke-linejoin="round"/>
<path d="M1.70239 10.413V8.81749C1.70239 5.55552 1.70239 3.92397 2.57561 2.87495C3.44978 1.82481 4.8257 1.77974 7.57656 1.68847C8.87914 1.64566 10.2107 1.61523 11.3512 1.61523C12.4907 1.61523 13.8222 1.64566 15.1257 1.68847C17.8766 1.77974 19.2525 1.82481 20.1257 2.87495C20.9999 3.92397 20.9999 5.55664 20.9999 8.81749V10.4119C20.9999 13.675 20.9999 15.3054 20.1267 16.3555C19.2525 17.4045 17.8776 17.4507 15.1257 17.5409C13.8232 17.5848 12.4916 17.6152 11.3512 17.6152C10.0927 17.6108 8.8344 17.586 7.57656 17.5409C4.8257 17.4507 3.44978 17.4057 2.57561 16.3555C1.70239 15.3054 1.70239 13.6738 1.70239 10.413Z" stroke="#1D9020" stroke-width="1.5"/>
</svg>
